<svg id="Capa_1" enable-background="new 0 0 512 512" height="512" viewBox="0 0 512 512" width="512" xmlns="http://www.w3.org/2000/svg"><g id="Quiz"><path d="m492.444 408.845c12.818-19.57 19.556-41.147 19.556-62.841 0-72.473-70.206-131.616-157.866-134.705-20.425 60.952-81.263 111.983-170.577 118.389-.789 5.391-1.556 10.79-1.556 16.317 0 74.443 74.019 135 165 135 31.187 0 61.465-7.28 88.008-21.123l56.968 20.259c5.345 1.909 11.495.625 15.645-3.545 4.087-4.102 5.449-10.195 3.501-15.659zm-190.444-47.841c0 8.291-6.709 15-15 15s-15-6.709-15-15v-30c0-8.291 6.709-15 15-15s15 6.709 15 15zm60 0c0 8.291-6.709 15-15 15s-15-6.709-15-15v-30c0-8.291 6.709-15 15-15s15 6.709 15 15zm60 0c0 8.291-6.709 15-15 15s-15-6.709-15-15v-30c0-8.291 6.709-15 15-15s15 6.709 15 15z"/><path d="m165 31.004c-31.216 0-61.479 7.28-88.008 21.123l-56.968-20.259c-5.449-1.948-11.557-.571-15.644 3.545-4.087 4.102-5.449 10.195-3.501 15.659l18.677 52.09c-12.818 19.57-19.556 41.147-19.556 62.842 0 74.443 74.019 135 165 135 88.761 0 165-58.596 165-135 0-74.444-74.019-135-165-135zm0 210c-8.284 0-15-6.716-15-15 0-8.286 6.716-15 15-15s15 6.714 15 15c0 8.283-6.716 15-15 15zm15.19-62.623c0 8.276-6.812 16.304-15.088 16.304-8.291 0-15.103-5.391-15.103-13.682 0-15.132 8.071-26.572 20.068-30.864 5.933-2.139 9.932-7.808 9.932-14.136 0-8.276-6.724-15-15-15s-15 6.724-15 15c0 8.291-6.709 15-15 15s-15-6.709-15-15c0-24.814 20.186-45 45-45s45 20.186 45 45c.001 18.941-11.981 35.977-29.809 42.378z"/></g></svg>